<svg width="138.03750305175782px" height="123.2px" xmlns="http://www.w3.org/2000/svg" viewBox="180.9812484741211 13.399999999999999 138.03750305175782 123.2" style="background: rgba(0, 0, 0, 0);" preserveAspectRatio="xMidYMid"><defs><filter id="editing-jagged" x="-100%" y="-100%" width="300%" height="300%"><feTurbulence result="turb" baseFrequency="0" numOctaves="1" seed="1"></feTurbulence><feDisplacementMap in="SourceGraphic" in2="turb" scale="10"></feDisplacementMap></filter></defs><g filter="url(#editing-jagged)"><g transform="translate(206.1599884033203, 97.65999603271484)"><path d="M23.04-45.06L23.04-45.06L23.04-45.06Q41.92-45.06 41.92-22.27L41.92-22.27L41.92-22.27Q41.92-11.84 36.54-5.79L36.54-5.79L36.54-5.79Q31.17 0.26 23.04 0.26L23.04 0.26L23.04 0.26Q14.40 0.26 9.66-4.48L9.66-4.48L9.66-4.48Q4.16-10.11 4.16-21.44L4.16-21.44L4.16-21.44Q4.16-32.77 9.57-38.91L9.57-38.91L9.57-38.91Q14.98-45.06 23.04-45.06ZM12.80-7.55L12.80-7.55L12.80-7.55Q16.32-3.58 23.04-3.58L23.04-3.58L23.04-3.58Q29.38-3.58 33.47-8.61L33.47-8.61L33.47-8.61Q37.57-13.63 37.57-23.04L37.57-23.04L37.57-23.04Q37.57-32.45 33.28-37.18L33.28-37.18L33.28-37.18Q29.70-41.22 23.04-41.22L23.04-41.22L23.04-41.22Q16.77-41.22 12.64-36.16L12.64-36.16L12.64-36.16Q8.51-31.10 8.51-21.66L8.51-21.66L8.51-21.66Q8.51-12.22 12.80-7.55ZM78.85 0L74.62-11.84L54.91-11.84L50.82 0L46.66 0L62.85-44.80L66.75-44.80L83.52 0L78.85 0ZM64.58-39.94L56-15.04L73.47-15.04L64.58-39.94Z" fill="#ffffff"></path></g></g><style>text {
  font-size: 64px;
  font-family: Arial Black;
  dominant-baseline: central;
  text-anchor: middle;
}</style></svg>